<?xml version="1.0" standalone="no"?>
<!DOCTYPE svg PUBLIC "-//W3C//DTD SVG 20010904//EN"
 "http://www.w3.org/TR/2001/REC-SVG-20010904/DTD/svg10.dtd">
<svg version="1.0" xmlns="http://www.w3.org/2000/svg"
 width="320.000000pt" height="320.000000pt" viewBox="0 0 320.000000 320.000000"
 preserveAspectRatio="xMidYMid meet">
<metadata>
Created by potrace 1.14, written by Peter Selinger 2001-2017
</metadata>
<g transform="translate(0.000000,320.000000) scale(0.100000,-0.100000)"
fill="#000000" stroke="none">
<path d="M257 3088 c-2 -62 -11 -219 -20 -348 -28 -409 -42 -787 -39 -1047 2
-208 0 -264 -14 -315 -12 -47 -17 -120 -19 -283 -1 -121 -8 -283 -14 -360 -11
-140 -13 -388 -4 -438 3 -14 14 -29 24 -32 14 -5 19 -16 19 -40 0 -45 -19 -55
-27 -14 l-6 33 -14 -39 c-7 -22 -13 -55 -12 -75 1 -19 -3 -48 -10 -63 -6 -16
-11 -37 -11 -48 0 -18 8 -19 160 -19 104 0 160 4 160 10 0 6 -9 28 -19 48 -24
47 -36 108 -23 116 5 3 24 -17 43 -44 53 -77 83 -78 48 -1 -26 58 -25 91 1 91
16 0 31 -23 72 -110 l52 -110 61 0 61 0 -4 39 c-2 21 1 48 7 59 14 26 69 37
91 17 9 -8 33 -15 52 -15 49 0 99 -11 93 -20 -3 -5 9 -11 27 -15 53 -11 122
-37 134 -52 6 -7 31 -13 56 -13 44 0 44 0 40 30 -3 21 -10 30 -21 29 -31 -3
-38 1 -49 27 -9 18 -17 24 -31 19 -10 -3 -28 3 -42 13 -43 32 -100 62 -119 62
-11 0 -24 9 -30 20 -6 11 -20 20 -31 20 -12 0 -33 6 -47 14 -25 13 -47 21
-139 56 l-33 12 24 19 c26 20 56 25 56 9 0 -5 10 -10 22 -10 21 0 21 0 2 15
-18 14 -18 14 7 15 15 0 29 -6 32 -14 3 -8 16 -12 31 -11 18 2 32 -5 46 -22
12 -16 25 -23 37 -19 10 3 32 -3 48 -14 17 -11 41 -20 54 -20 20 0 22 3 16 27
-3 14 -15 37 -25 50 -25 32 -35 82 -20 96 12 12 34 -8 87 -79 17 -23 24 -26
31 -15 33 48 118 -70 152 -210 18 -71 27 -82 63 -75 25 5 27 3 22 -14 -8 -25
9 -32 68 -28 43 3 45 4 32 22 -11 14 -18 16 -28 8 -17 -15 -30 -4 -47 38 -22
53 -7 108 20 75 7 -8 18 -15 26 -15 7 0 28 -15 46 -33 18 -19 41 -37 51 -40
10 -4 17 -17 17 -32 0 -14 5 -25 10 -25 6 0 10 5 10 10 0 6 9 10 19 10 11 0
23 -4 26 -10 10 -16 1304 -14 1310 3 2 6 9 77 15 157 12 154 19 241 45 570 21
264 32 410 44 590 10 136 17 230 41 510 5 63 14 192 20 285 6 94 15 238 21
320 16 226 16 243 -1 259 -12 11 -70 17 -255 25 -382 18 -535 31 -580 50 -36
16 -41 23 -52 72 -7 30 -13 62 -13 71 0 23 -47 38 -107 35 -40 -1 -58 3 -82
20 -22 17 -38 21 -61 17 -24 -5 -37 -1 -58 18 -31 29 -115 78 -132 78 -7 0
-25 11 -42 25 -16 14 -40 25 -53 25 -13 0 -27 5 -30 10 -4 6 -21 8 -39 5 -34
-7 -64 14 -51 35 4 7 -195 10 -644 10 l-649 0 -5 -112z m1399 -913 c10 -8 34
-15 52 -15 37 0 41 -3 118 -77 30 -28 63 -54 74 -58 26 -8 25 -21 -6 -62 -33
-43 -29 -69 11 -65 48 4 72 -6 95 -38 l21 -29 -43 -21 c-138 -68 -164 -92
-167 -157 -1 -19 4 -23 30 -23 36 0 111 20 120 32 3 4 32 10 65 12 32 2 68 7
80 11 18 5 25 -4 57 -72 20 -44 37 -82 37 -86 0 -4 9 -26 19 -50 32 -70 42
-114 36 -149 -4 -23 0 -51 15 -88 33 -83 29 -146 -15 -228 -20 -37 -45 -76
-55 -87 -10 -11 -22 -32 -25 -47 -4 -14 -15 -34 -25 -43 -17 -15 -21 -15 -48
-1 -30 15 -30 15 -43 -17 -19 -45 -40 -67 -65 -67 -13 0 -31 -11 -41 -23 -10
-13 -28 -29 -41 -36 -13 -7 -22 -21 -22 -35 0 -16 -7 -26 -22 -30 -36 -9 -86
-7 -93 5 -4 6 -13 8 -21 5 -22 -9 -177 12 -250 34 -38 11 -87 26 -109 32 -22
6 -47 18 -56 25 -8 7 -25 13 -36 13 -17 0 -48 28 -90 81 -19 23 3 82 27 76 10
-2 22 -2 28 2 14 9 -4 51 -22 51 -9 0 -13 6 -10 13 2 7 -5 23 -17 35 -11 13
-18 30 -15 38 3 8 2 13 -3 10 -4 -3 -16 3 -26 14 -10 11 -28 20 -39 20 -12 0
-34 14 -50 31 -17 17 -35 28 -43 25 -10 -4 -19 4 -26 23 -6 16 -20 34 -32 39
-14 6 -25 27 -34 60 -7 28 -17 52 -23 54 -13 5 -14 34 -4 136 4 50 4 82 -2 82
-15 0 -22 42 -10 57 6 8 10 43 9 83 -2 69 -2 69 26 76 15 3 37 9 48 12 11 4
26 7 34 7 15 0 73 85 111 161 35 69 173 204 210 204 12 0 69 -60 70 -73 0 -5
12 -24 26 -43 20 -26 34 -34 58 -34 51 0 61 13 62 77 0 65 14 106 41 122 24
14 26 14 49 -4z m747 -505 c5 -20 -15 -50 -34 -50 -16 0 -21 27 -9 49 14 27
36 27 43 1z m-1570 -603 c66 -24 88 -81 42 -111 -21 -14 -25 -14 -25 -2 0 8
-9 18 -20 21 -17 5 -70 80 -70 98 0 11 32 8 73 -6z m151 -150 c25 -18 13 -55
-22 -68 -45 -17 -72 12 -37 41 9 7 14 19 11 27 -7 17 24 17 48 0z m256 9 c0
-3 -4 -8 -10 -11 -5 -3 -10 -1 -10 4 0 6 5 11 10 11 6 0 10 -2 10 -4z m995
-242 c22 -41 29 -141 14 -191 -18 -56 -62 -54 -80 5 -23 79 -27 104 -19 135 4
18 11 44 14 60 10 41 46 37 71 -9z m-382 -168 c25 -2 43 -9 53 -24 11 -16 20
-20 32 -13 9 5 35 11 57 12 35 4 40 1 43 -18 4 -29 -38 -41 -82 -24 -17 6 -56
13 -86 15 -53 4 -110 22 -110 35 0 4 -10 7 -21 8 -12 1 -27 7 -33 13 -8 8 5
10 49 5 33 -3 77 -7 98 -9z"/>
<path d="M1733 1624 c-3 -9 0 -20 8 -24 8 -6 12 -24 10 -52 -2 -34 3 -48 18
-62 12 -11 21 -29 21 -42 0 -14 8 -25 20 -29 11 -3 20 -10 20 -16 0 -5 16 -15
35 -23 20 -9 39 -26 45 -41 5 -14 17 -25 25 -25 23 0 31 31 12 45 -10 7 -17
20 -17 29 0 9 -16 33 -35 53 -19 20 -35 45 -35 55 0 31 -39 84 -75 101 -24 11
-33 21 -29 32 4 8 1 15 -5 15 -7 0 -14 -7 -18 -16z"/>
<path d="M1013 1508 c-37 -39 -54 -88 -30 -88 31 0 64 22 82 55 15 28 16 37 5
50 -17 21 -22 19 -57 -17z"/>
<path d="M1401 1501 c-7 -5 -22 -6 -32 -4 -13 4 -22 -3 -31 -23 -7 -16 -13
-30 -14 -32 -1 -2 -12 3 -24 10 -19 11 -23 10 -40 -9 -10 -13 -23 -23 -28 -23
-14 0 -52 -54 -52 -73 0 -36 42 -25 122 30 26 18 57 33 67 33 11 0 23 5 26 10
3 6 15 10 25 10 10 0 26 7 35 16 12 13 13 19 4 31 -19 22 -44 32 -58 24z"/>
<path d="M1621 1294 c0 -11 3 -14 6 -6 3 7 2 16 -1 19 -3 4 -6 -2 -5 -13z"/>
<path d="M1698 1223 c7 -3 16 -2 19 1 4 3 -2 6 -13 5 -11 0 -14 -3 -6 -6z"/>
<path d="M2060 1161 c-52 -21 -162 -85 -182 -105 -8 -7 -25 -17 -38 -20 -48
-14 -192 -89 -197 -103 -3 -8 -1 -19 5 -25 15 -15 109 8 152 37 43 29 143 59
178 52 45 -9 108 22 127 62 28 58 36 93 24 108 -14 16 -14 16 -69 -6z"/>
</g>
</svg>
